<svg xmlns="http://www.w3.org/2000/svg" width="312.8" height="266.7" viewBox="0 0 312.8 266.7">
  <defs>
    <style>
      .cls-1 {
        fill: #fff;
      }
    </style>
  </defs>
  <g id="Layer_2" data-name="Layer 2">
    <g id="Layer_1-2" data-name="Layer 1">
      <g>
        <path d="M312.8,144.6l-.2.5a25.8,25.8,0,0,1-1.4,6.7,15.9,15.9,0,0,1-2.6,5.4c-1,1.2-1.8,2.6-2.9,3.7a38,38,0,0,1-3.8,2.9,17.3,17.3,0,0,1-6.1,2.6,16.6,16.6,0,0,1-4.9.7l-11.7-.5-18.4-1.3c-9.6-.7-19.3-.6-29-.7h-1.1l.3,4.3a75,75,0,0,1-.6,14.2c-.3,1.6-.6,3.1-1,4.6s-1.4,4.7-2.2,7a46,46,0,0,1-2.9,5.9c-1.2,2.1-2.4,4.2-3.8,6.2s-2.4,2.8-3.6,4.2a35.7,35.7,0,0,1-2.8,2.7l-3.2,2.6c-1.3.9-2.6,1.8-4,2.6l-4.4,2.2a1,1,0,0,0-.7.8c-.2,1.3-.2,2.6-.5,3.8s-1,4.1-1.5,6.2a11.2,11.2,0,0,1-.8,2.6,45.5,45.5,0,0,1-2.1,5.1,37.7,37.7,0,0,1-3.4,5.4,47.2,47.2,0,0,1-3.7,4.1l-2.8,2.8c-1.1.9-2.4,1.8-3.6,2.6s-2.9,1.9-4.4,2.8a22.6,22.6,0,0,1-3.5,1.7l-6.5,2.8-.7.2-5.7,1.6-5.4,1.3-7,1.2c-5.4.9-10.7.5-16.1.2-3.2-.2-6.5-.7-9.7-1.1l-6.6-1.1-5.9-1.2-5-1.1-7.7-2.2-6.5-2.2-6.2-2.3a38.2,38.2,0,0,1-4.6-2.1c-2.3-1.1-4.7-2.2-6.9-3.4s-4.5-2.6-6.7-3.9L64,242.9l-3.7-2.8a35.8,35.8,0,0,1-3.9-2.9l-2.9-2.5-2.6-2.4L46.6,228l-2.4-2.4c-.7-.8-1.4-1.5-2-2.3a31.4,31.4,0,0,1-3.4-4c-.9-1.3-1.8-1.1-2.9-.6a20.6,20.6,0,0,1-8.5,1.4,17.6,17.6,0,0,1-7.1-2,20.8,20.8,0,0,1-5.1-3.7c-1.2-1.4-2.6-2.6-3.8-4s-1.2-1.7-1.8-2.5S7.8,205.3,7,204s-1.2-2.5-1.8-3.7a24.9,24.9,0,0,1-2.5-6.9c-.3-1.7-.8-3.4-1.1-5s-.7-5.4-1-8.1c-.9-6.6-.6-13.3-.3-19.9.2-3.4.6-6.7,1-10s.7-4.9,1.1-7.3l1.2-5.8c.3-1.5.7-3,1.1-4.5s1.4-4.7,2.3-6.9a47.2,47.2,0,0,1,3.2-6.8,41.5,41.5,0,0,1,4.3-5.8c1.6-1.8,3.5-3.4,5.2-5.1a29.1,29.1,0,0,1,4.6-3.2,21.7,21.7,0,0,1,5.4-2.4c1.7-.4,3.4-.6,5.1-1.1s5.4.2,8.1.8a19.2,19.2,0,0,1,3.3,1.4h.5l3.1-3.3,2.4-2.6,4.1-4.1L59.2,91l3-2.7c1-.9,1.9-1.9,2.8-2.8l2.5-2.3c1.4-1.2,2.8-2.4,4.1-3.7l4.5-4.2,3-2.7,2.7-3c1.3-1.5,2.7-2.9,3.9-4.5a17.5,17.5,0,0,0,1.8-2.9,21.1,21.1,0,0,0,1.6-3.4,13.5,13.5,0,0,0,.4-2.9L91,47.2a38.9,38.9,0,0,1,1.2-4.9c.7-2.8,1.4-5.7,2.3-8.5s1.3-4.2,2.1-6.3,1.5-3.9,2.3-5.8,1.4-3.2,2.2-4.7,2.1-3.7,3.3-5.5,2.7-3.3,4.1-5a21.6,21.6,0,0,1,4.3-3.6A21.7,21.7,0,0,1,118.2.5a13.9,13.9,0,0,1,6.4-.2A25.2,25.2,0,0,1,129.9,2a52.8,52.8,0,0,1,5.3,2.7c2,1.2,3.9,2.5,5.8,3.9s3.9,3,5.8,4.6a36.8,36.8,0,0,1,4,3.9,24.8,24.8,0,0,1,2.8,3.6,36,36,0,0,1,2.8,4,21.6,21.6,0,0,1,1.7,3.4,47.6,47.6,0,0,1,1.9,5.3,40.3,40.3,0,0,1,1.1,16.2,38.9,38.9,0,0,1-1.3,6.8c-.6,2.4-1.4,4.8-2.2,7.1s-1.5,3.7-2.3,5.5L152,75.6c-1.1,1.9-2.2,3.9-3.4,5.8s-3,4.5-4.5,6.7l-3.3,4.5-2.6,3.1a.8.8,0,0,1-.1.4l5.5,1.7,4.8,1.2,5.1,1.1c2.7.4,5.5.7,8.2,1.2a103.7,103.7,0,0,0,13.6,1c3.1.1,6.3.3,9.4.2,6.2-.2,12.3-.5,18.5-1,4.1-.2,8.2-.7,12.3-1.1l10.9-1.1,11.4-1.2a127.3,127.3,0,0,1,19.5-.9,79,79,0,0,1,8.5.7,38.4,38.4,0,0,1,5.9,1.1,65.9,65.9,0,0,1,7.2,2.2c2,.7,3.9,1.7,5.9,2.6l3.2,1.7a49.7,49.7,0,0,1,4.5,2.9,52.5,52.5,0,0,1,5.3,4,42.7,42.7,0,0,1,6.3,7.1l2.7,3.6a25.4,25.4,0,0,1,1.6,2.8c.6,1.1,1.1,2.3,1.7,3.4a10.9,10.9,0,0,1,.5,1.7l1.5,5.5c.3,1.3.4,2.6.7,3.9Zm-147.5,84h-.1l1.7-1.3a34.8,34.8,0,0,1,3.9-2.8l4.2-2.3,4.6-2.1,5.7-2.3,5.6-2.1c2.2-.8,4.5-1.7,6.8-2.4a25,25,0,0,0,5.3-2.3,42.9,42.9,0,0,0,6-4.2,36.3,36.3,0,0,0,6.3-7.3,47.6,47.6,0,0,0,2.8-4.9,42.9,42.9,0,0,0,2.3-6.3,57.2,57.2,0,0,0,1.4-7.2,67,67,0,0,0-.1-15.5c-.1-.7-.3-.9-1-.9l-14.4.7-12.4,1.2-8.5,1.1-6.1,1.2-6.8,1.6-3.1,1a14.3,14.3,0,0,1,2.4-1.9c2.1-1.4,4.3-2.7,6.5-4l5.5-2.8,4.7-1.8,7.9-2.4a55.9,55.9,0,0,1,5.6-1.2l9-1.1,5.5-.4c15.4-.3,30.7-.5,46.1.6,1.5.1,3.1.1,4.6.3l12.3.9c3.5.2,6.9.5,10.4.6a15.2,15.2,0,0,0,10-3.2,11.6,11.6,0,0,0,3.6-5.6,21.5,21.5,0,0,0,.1-10.4,59.7,59.7,0,0,0-2.2-6.8,16.4,16.4,0,0,0-1.4-3l-2.7-4.3c-1-1.3-2-2.6-3.1-3.8a36.3,36.3,0,0,0-2.8-2.7,38.6,38.6,0,0,0-3.8-3,34.5,34.5,0,0,0-4.1-2.5,44.1,44.1,0,0,0-5.8-2.8,61.2,61.2,0,0,0-6.9-2.2,23,23,0,0,0-5.1-1,99.9,99.9,0,0,0-11-.7,113.3,113.3,0,0,0-16.5.9c-3.1.5-6.3.7-9.4,1l-10.7,1.2-12,1.1c-6.5.5-13.1.9-19.6,1.1a98.7,98.7,0,0,1-10.9-.2,98.6,98.6,0,0,1-16.3-1.2l-7.2-1.1a60.9,60.9,0,0,1-9.6-2.2c-2-.6-3.9-1-5.9-1.7l-5.6-2a17.5,17.5,0,0,1-2.8-1.3,3.3,3.3,0,0,1-1.5-1.6,4.4,4.4,0,0,1,.7-5.3c1.8-2.1,3.4-4.3,5-6.4s3-3.7,4.4-5.7,2.8-3.9,4.1-5.9a48.6,48.6,0,0,0,3.3-5.4c1.3-2.2,2.4-4.5,3.6-6.7a43.2,43.2,0,0,0,1.9-4.5,69.9,69.9,0,0,0,2.3-7.4,36.8,36.8,0,0,0,.7-5.8,29.2,29.2,0,0,0-1-11,27.3,27.3,0,0,0-2.6-6.1,47,47,0,0,0-3.7-5.4,35.1,35.1,0,0,0-7.4-7c-1.6-1.1-3.1-2.3-4.8-3.4l-3.9-2.3a23.9,23.9,0,0,1-2.2-1.2,9.5,9.5,0,0,0-4.6-1.4,9,9,0,0,0-5.3,1.4,12.5,12.5,0,0,0-3.7,3.1,74.9,74.9,0,0,0-4.5,6.5,29.6,29.6,0,0,0-2.2,4.8q-1.3,3.1-2.4,6.3c-.8,2.3-1.4,4.5-2.1,6.8l-1.2,4.7c-.4,1.5-.7,3.1-1,4.7s-.9,4.4-1.3,6.6-.6,4.6-1.1,6.8a16.6,16.6,0,0,1-1.5,3.9,46.6,46.6,0,0,1-3,4.7L89.8,74l-2.3,2.5-2.9,3.1c-.8.9-1.8,1.7-2.7,2.6L79.1,85l-1.4,1.3L75,88.8l-2.8,2.8c-1.2,1-2.4,2-3.5,3.1l-7.5,7.2-3.8,3.8-4.2,4.8-4,4.8a50.9,50.9,0,0,0-3.4,4.7,46.4,46.4,0,0,0-2.5,4.2,66.3,66.3,0,0,0-2.9,6c-.8,2.3-1.4,4.6-2,7s-.8,3.8-1.1,5.7-1,5.8-1.3,8.7c-.4,4.4-.8,8.7-1,13.1a89.9,89.9,0,0,0,.3,17.2c.4,3.4.7,6.9,1.1,10.3s.7,3.9,1.2,5.9a36.5,36.5,0,0,0,1.8,5.6,41.6,41.6,0,0,0,2.8,5.1c.9,1.4,1.9,2.7,2.9,4s2.1,2.7,3.2,4a10.7,10.7,0,0,0,1.4,1.6l2.8,2.9a35.7,35.7,0,0,0,2.7,2.8l2.9,2.7c.9.8,1.7,1.7,2.7,2.5l3.9,3,5,3.8c1.8,1.2,3.6,2.4,5.5,3.5s3.8,2.2,5.8,3.2l5.3,2.4,4.8,2.1,5.9,2.2,7.4,2.3,9.2,2.3,4.5.9c2.3.4,4.6.9,6.9,1.2s5.9.9,8.9,1.1c5.3.4,10.6.7,15.9-.3l6.8-1.1a45,45,0,0,0,8.2-2.2c2.1-.8,4.3-1.5,6.3-2.4a38.6,38.6,0,0,0,5.7-3,37.5,37.5,0,0,0,4.9-3.8,20.6,20.6,0,0,0,3-2.9,49.7,49.7,0,0,0,3.2-4.4,24.3,24.3,0,0,0,2.2-4.6c.7-2.1,1.2-4.2,1.8-6.4s.4-1.8.7-2.8l-8.1,1.4-6.7,1.2-8.6,1.6A27.9,27.9,0,0,0,165.3,228.6ZM32.5,210.5a4.5,4.5,0,0,0-.2-.8,35.6,35.6,0,0,1-1.7-4.1c-.9-2.9-1.7-5.9-2.4-8.8a52,52,0,0,1-1.1-6.7c-.4-3.8-.8-7.5-1-11.3a129.8,129.8,0,0,1,.2-16.5c.5-4.1.7-8.2,1.1-12.3s.8-5.5,1.1-8.2a70.9,70.9,0,0,1,2.4-11.1,39.7,39.7,0,0,1,2.3-6.6l2.2-4.4,2.6-4.5,2.9-4.2-3.3-.9A12.4,12.4,0,0,0,29,112a25.9,25.9,0,0,0-4.2,3.2,31.8,31.8,0,0,0-6.2,7.8,40.3,40.3,0,0,0-2.8,5,46.3,46.3,0,0,0-2.1,5.6c-.8,3-1.6,6-2.3,9.1s-.8,4.2-1.1,6.4-.9,6.7-1.1,10.1c-.4,7.2-.8,14.3.3,21.5.3,2.5.7,5.1,1.2,7.7a25.9,25.9,0,0,0,2.3,7.3c.5,1.2,1.1,2.4,1.7,3.6l1.8,2.9a40.4,40.4,0,0,0,2.8,4,34.4,34.4,0,0,0,2.7,2.7,8.7,8.7,0,0,0,6.1,2.4A24.1,24.1,0,0,0,32.5,210.5Z"/>
        <path class="cls-1" d="M165.3,228.6a27.9,27.9,0,0,1,3.9-1l8.6-1.6,6.7-1.2,8.1-1.4c-.3,1-.5,2-.7,2.8s-1.1,4.3-1.8,6.4a24.3,24.3,0,0,1-2.2,4.6,49.7,49.7,0,0,1-3.2,4.4,20.6,20.6,0,0,1-3,2.9,37.5,37.5,0,0,1-4.9,3.8,38.6,38.6,0,0,1-5.7,3c-2,.9-4.2,1.6-6.3,2.4a45,45,0,0,1-8.2,2.2l-6.8,1.1c-5.3,1-10.6.7-15.9.3-3-.2-5.9-.7-8.9-1.1s-4.6-.8-6.9-1.2l-4.5-.9-9.2-2.3L97,249.5l-5.9-2.2-4.8-2.1L81,242.8c-2-1-3.9-2.1-5.8-3.2s-3.7-2.3-5.5-3.5l-5-3.8-3.9-3c-1-.8-1.8-1.7-2.7-2.5l-2.9-2.7a35.7,35.7,0,0,1-2.7-2.8l-2.8-2.9a10.7,10.7,0,0,1-1.4-1.6c-1.1-1.3-2.2-2.6-3.2-4s-2-2.6-2.9-4a41.6,41.6,0,0,1-2.8-5.1,36.5,36.5,0,0,1-1.8-5.6c-.5-2-.9-3.9-1.2-5.9s-.7-6.9-1.1-10.3a89.9,89.9,0,0,1-.3-17.2c.2-4.4.6-8.7,1-13.1.3-2.9.8-5.8,1.3-8.7s.7-3.8,1.1-5.7,1.2-4.7,2-7a66.3,66.3,0,0,1,2.9-6,46.4,46.4,0,0,1,2.5-4.2,50.9,50.9,0,0,1,3.4-4.7l4-4.8,4.2-4.8,3.8-3.8,7.5-7.2c1.1-1.1,2.3-2.1,3.5-3.1L75,88.8l2.7-2.5L79.1,85l2.8-2.8c.9-.9,1.9-1.7,2.7-2.6l2.9-3.1L89.8,74l3.4-4.4a46.6,46.6,0,0,0,3-4.7A16.6,16.6,0,0,0,97.7,61c.5-2.2.8-4.5,1.1-6.8s.8-4.4,1.3-6.6.6-3.2,1-4.7l1.2-4.7c.7-2.3,1.3-4.5,2.1-6.8s1.5-4.2,2.4-6.3a29.6,29.6,0,0,1,2.2-4.8,74.9,74.9,0,0,1,4.5-6.5,12.5,12.5,0,0,1,3.7-3.1,9,9,0,0,1,5.3-1.4,9.5,9.5,0,0,1,4.6,1.4,23.9,23.9,0,0,0,2.2,1.2l3.9,2.3c1.7,1.1,3.2,2.3,4.8,3.4a35.1,35.1,0,0,1,7.4,7,47,47,0,0,1,3.7,5.4,27.3,27.3,0,0,1,2.6,6.1,29.2,29.2,0,0,1,1,11,36.8,36.8,0,0,1-.7,5.8,69.9,69.9,0,0,1-2.3,7.4,43.2,43.2,0,0,1-1.9,4.5c-1.2,2.2-2.3,4.5-3.6,6.7a48.6,48.6,0,0,1-3.3,5.4c-1.3,2-2.7,4-4.1,5.9s-2.9,3.8-4.4,5.7-3.2,4.3-5,6.4a4.4,4.4,0,0,0-.7,5.3,3.3,3.3,0,0,0,1.5,1.6,17.5,17.5,0,0,0,2.8,1.3l5.6,2c2,.7,3.9,1.1,5.9,1.7a60.9,60.9,0,0,0,9.6,2.2l7.2,1.1a98.6,98.6,0,0,0,16.3,1.2,98.7,98.7,0,0,0,10.9.2c6.5-.2,13.1-.6,19.6-1.1l12-1.1,10.7-1.2c3.1-.3,6.3-.5,9.4-1a113.3,113.3,0,0,1,16.5-.9,99.9,99.9,0,0,1,11,.7,23,23,0,0,1,5.1,1,61.2,61.2,0,0,1,6.9,2.2,44.1,44.1,0,0,1,5.8,2.8,34.5,34.5,0,0,1,4.1,2.5,38.6,38.6,0,0,1,3.8,3,36.3,36.3,0,0,1,2.8,2.7c1.1,1.2,2.1,2.5,3.1,3.8l2.7,4.3a16.4,16.4,0,0,1,1.4,3,59.7,59.7,0,0,1,2.2,6.8,21.5,21.5,0,0,1-.1,10.4,11.6,11.6,0,0,1-3.6,5.6,15.2,15.2,0,0,1-10,3.2c-3.5-.1-6.9-.4-10.4-.6l-12.3-.9c-1.5-.2-3.1-.2-4.6-.3-15.4-1.1-30.7-.9-46.1-.6l-5.5.4-9,1.1a55.9,55.9,0,0,0-5.6,1.2l-7.9,2.4-4.7,1.8-5.5,2.8c-2.2,1.3-4.4,2.6-6.5,4a14.3,14.3,0,0,0-2.4,1.9l3.1-1,6.8-1.6,6.1-1.2,8.5-1.1,12.4-1.2,14.4-.7c.7,0,.9.2,1,.9a67,67,0,0,1,.1,15.5,57.2,57.2,0,0,1-1.4,7.2,42.9,42.9,0,0,1-2.3,6.3,47.6,47.6,0,0,1-2.8,4.9,36.3,36.3,0,0,1-6.3,7.3,42.9,42.9,0,0,1-6,4.2,25,25,0,0,1-5.3,2.3c-2.3.7-4.6,1.6-6.8,2.4l-5.6,2.1-5.7,2.3-4.6,2.1-4.2,2.3a34.8,34.8,0,0,0-3.9,2.8l-1.7,1.3Zm-57-36.6c2.3,0,4-1.1,4.6-2.9A4.6,4.6,0,0,0,109,183l-6.8-1-8.9-1.2L85,179.6l-7.3-1.1-5.2-1-6-1.2-5.1-1.1-6.6-1.5a4.5,4.5,0,0,0-2.1,8.8l3.6.9,4.2,1,5.4,1.2,5.6,1.1,6.5,1.1,7.4,1.2,8.5,1.1,8.3,1.1Zm-13,22.3a4.3,4.3,0,0,0-3.1-4.4l-6.5-2.2-7.4-2.4L72.4,203l-4.8-2-6.1-2.9-5.7-3c-2.7-1.2-5.4-.3-6.5,2.1s-.1,4.7,1.5,5.5l5.6,3.1,5.2,2.4,6.9,3.2,5.8,2.3,7,2.2,5,1.6,3.3,1A4.4,4.4,0,0,0,95.3,214.3ZM79.4,159.2V159H92.6a4.7,4.7,0,0,0,4.4-3.3,4.4,4.4,0,0,0-3.8-5.6H87.5a223.4,223.4,0,0,1-25.9-.7l-5.9-.5c-2.8-.2-4.1.8-4.9,2.9a4.4,4.4,0,0,0,3.6,6c3.9.5,7.8.8,11.7,1S74.9,159,79.4,159.2Z"/>
        <path class="cls-1" d="M32.5,210.5a24.1,24.1,0,0,1-4.4.8,8.7,8.7,0,0,1-6.1-2.4,34.4,34.4,0,0,1-2.7-2.7,40.4,40.4,0,0,1-2.8-4l-1.8-2.9c-.6-1.2-1.2-2.4-1.7-3.6a25.9,25.9,0,0,1-2.3-7.3c-.5-2.6-.9-5.2-1.2-7.7-1.1-7.2-.7-14.3-.3-21.5.2-3.4.7-6.8,1.1-10.1s.7-4.3,1.1-6.4,1.5-6.1,2.3-9.1a46.3,46.3,0,0,1,2.1-5.6,40.3,40.3,0,0,1,2.8-5,31.8,31.8,0,0,1,6.2-7.8A25.9,25.9,0,0,1,29,112a12.4,12.4,0,0,1,8.6-1.9l3.3.9L38,115.2l-2.6,4.5-2.2,4.4a39.7,39.7,0,0,0-2.3,6.6,70.9,70.9,0,0,0-2.4,11.1c-.3,2.7-.8,5.5-1.1,8.2s-.6,8.2-1.1,12.3a129.8,129.8,0,0,0-.2,16.5c.2,3.8.6,7.5,1,11.3a52,52,0,0,0,1.1,6.7c.7,2.9,1.5,5.9,2.4,8.8a35.6,35.6,0,0,0,1.7,4.1A4.5,4.5,0,0,1,32.5,210.5Z"/>
        <path d="M108.3,192l-6.1-.8-8.3-1.1L85.4,189,78,187.8l-6.5-1.1-5.6-1.1-5.4-1.2-4.2-1-3.6-.9a4.5,4.5,0,0,1,2.1-8.8l6.6,1.5,5.1,1.1,6,1.2,5.2,1,7.3,1.1,8.3,1.2,8.9,1.2,6.8,1a4.6,4.6,0,0,1,3.9,6.1C112.3,190.9,110.6,192,108.3,192Z"/>
        <path d="M95.3,214.3a4.4,4.4,0,0,1-5.7,4.2l-3.3-1-5-1.6-7-2.2-5.8-2.3-6.9-3.2-5.2-2.4-5.6-3.1c-1.6-.8-2.3-3.5-1.5-5.5s3.8-3.3,6.5-2.1l5.7,3,6.1,2.9,4.8,2,5.9,2.3,7.4,2.4,6.5,2.2A4.3,4.3,0,0,1,95.3,214.3Z"/>
        <path d="M79.4,159.2c-4.5-.2-8.9-.2-13.3-.5s-7.8-.5-11.7-1a4.4,4.4,0,0,1-3.6-6c.8-2.1,2.1-3.1,4.9-2.9l5.9.5a223.4,223.4,0,0,0,25.9.7h5.7a4.4,4.4,0,0,1,3.8,5.6,4.7,4.7,0,0,1-4.4,3.3H79.4Z"/>
      </g>
    </g>
  </g>
</svg>
